PathFileType	4	(X/Y/Z)	54_2_rein_86_p1_0-890_filt_butterworth.trc
DataRate	CameraRate	NumFrames	NumMarkers	Units	OrigDataRate	OrigDataStartFrame	OrigNumFrames
59.0	59.0	7	27	m	59.0	556	890
Frame#	Time	RHip			RKnee			RAnkle			RBigToe			RSmallToe			RHeel			LHip			LKnee			LAnkle			LBigToe			LSmallToe			LHeel			Neck			Head			Nose			RShoulder			RElbow			RWrist			RThumb			RIndex			RPinky			LShoulder			LElbow			LWrist			LThumb			LIndex			LPinky			
		X1	Y1	Z1	X2	Y2	Z2	X3	Y3	Z3	X4	Y4	Z4	X5	Y5	Z5	X6	Y6	Z6	X7	Y7	Z7	X8	Y8	Z8	X9	Y9	Z9	X10	Y10	Z10	X11	Y11	Z11	X12	Y12	Z12	X13	Y13	Z13	X14	Y14	Z14	X15	Y15	Z15	X16	Y16	Z16	X17	Y17	Z17	X18	Y18	Z18	X19	Y19	Z19	X20	Y20	Z20	X21	Y21	Z21	X22	Y22	Z22	X23	Y23	Z23	X24	Y24	Z24	X25	Y25	Z25	X26	Y26	Z26	X27	Y27	Z27	
556	9.423728813559322	0.29786786076657396	1.046217355605888	0.5472956470358943	0.264031285139268	0.5587730134930347	0.5304417861047801	0.271979381260145	0.08021652933463264	0.5410396653630414	0.21532106228144304	0.0638952182524879	0.35332293059908076	0.284326872442902	0.04522658443051425	0.3889540799609261	0.256914100195547	-0.009626679167021325	0.6339551666277877	0.0669988783810657	1.0294902431776611	0.5857457213909749	0.0872025839304716	0.5422305594824521	0.5698623325111516	0.06664633156918542	0.10709705083761509	0.5691558714208595	0.06040168496571231	0.07014158102968085	0.3680802433699438	0.013245089200507862	0.042725181791081694	0.4272691551268013	0.08393864479596777	0.05325191467255101	0.5981656385557185	0.20266350525476165	1.58674106233504	0.5715705513187143	0.188474865412064	1.8448356538412913	0.5085540736168256	0.18698477014518322	1.710559722493631	0.4700802141714325	0.3501701489463128	1.5036794156202389	0.5554135723760637	0.4047897108825882	1.2232667145276013	0.5510877390675023	0.352062124972079	1.0773923739700975	0.37024722576189295	0.25657920416053	1.0533155124953257	0.23072337694103734	0.26397523400295236	1.0373764852645064	0.2274149855701984	0.30996018035178746	0.9859298248971272	0.2888905614468465	0.03286000499976926	1.5116811389767797	0.583807826800103	-0.03566734615962423	1.218847546851178	0.6127359049524905	-0.02001350267128723	0.9989691764655714	0.46250774720389337	0.041719359776436635	0.9199220056560466	0.38566991787885685	-0.0019627160805844477	0.9109975815161049	0.3589617148117844	-0.03317340954292072	0.8821789954875349	0.4228599175444194	
557	9.440677966101696	0.29665989048167746	1.04941475542364	0.5458853868096311	0.2642255741286151	0.5579755983091261	0.5303769148399623	0.27216463451365314	0.08032152833887064	0.5406922195176191	0.21537160076721695	0.06300370753242476	0.35344544482633794	0.2848362168491335	0.04487763373984138	0.3909990487541195	0.25756336870509655	-0.009961035110529646	0.6341539656671896	0.06650065576888893	1.0317813570982037	0.5858047426244204	0.08684487011241426	0.5424492752844129	0.570364103196135	0.06669433369341723	0.10681885429837487	0.5690103346754939	0.060472201714788475	0.06995406246659763	0.3681187288113577	0.013309382804090563	0.042473675918825005	0.42693199083039507	0.08341415191118934	0.0542601732075263	0.5966166857402475	0.2026622935441424	1.5867482643087139	0.5716493037422581	0.18940137823897776	1.8447429401967295	0.5097833838370869	0.1871706923548015	1.7105757047819468	0.47024623242701197	0.35017741244690037	1.5041490042734618	0.5554789145620207	0.4057733645740983	1.223162208191158	0.5472615043237289	0.35393477315978594	1.0695543044772926	0.3738306156293232	0.2585414034738082	1.0394149716347907	0.23267889868307684	0.26686165222603103	1.0232908961811842	0.22989886284321348	0.31256878396389753	0.9781878626759253	0.2905053006909537	0.03280965668449378	1.5126436148807856	0.5836953909303157	-0.03475680904204603	1.2177409757996973	0.6134187264471033	-0.018171367965570832	0.9899074438471367	0.47251380454704256	0.04132903217946299	0.9076340831294981	0.4040319321910954	-0.0033112276833234698	0.9014938507620075	0.37934389092530296	-0.03460848887523121	0.8767908977475136	0.43300360398550114	
558	9.457627118644067	0.2954365039471444	1.0524122969826712	0.5445446807837985	0.26440129729038003	0.5572171087099524	0.5302647348023712	0.2722045475888186	0.08026693059961658	0.5406570129477762	0.21545484521964986	0.06274905772312772	0.3535184209746169	0.28455563274331186	0.044705064333187654	0.39298832929513045	0.25812643694530174	-0.010201211602113293	0.6343018482498141	0.06623977487011268	1.0338412390543057	0.5859780028016232	0.08658348314233474	0.5430079588833194	0.5706387343542746	0.06667096226463476	0.10654187007909305	0.5688497710819699	0.06054865117405607	0.06980563402278125	0.36813883868567965	0.013482102001429007	0.042685604876276734	0.42645859450453355	0.08279188689891283	0.05477819024612264	0.5958142644601158	0.20268961385457085	1.5868183469867878	0.5714002219621408	0.1902702407758608	1.844630636817459	0.5114661217607236	0.18774968556942762	1.7105293121646234	0.4703288161373579	0.3501648636668424	1.504765296333185	0.555629480492275	0.4064161370375242	1.2222141819656926	0.5452546413120541	0.35554896198435765	1.062432312672733	0.3764990428741465	0.2616675475981042	1.0260800890166106	0.23533410587312623	0.27150746746617754	1.0097355172081632	0.23449834088273724	0.3148435876449941	0.9703863567902656	0.29377450952830225	0.03276181618045845	1.513928892330678	0.5836459476433898	-0.03386977420154491	1.2173171444689048	0.614152226158766	-0.017640248134465925	0.9818341655041477	0.4825187552056005	0.03854044994538537	0.8967487903375196	0.42343303044238184	-0.004970295902081787	0.8920545342926337	0.39996644210949295	-0.037870884025741944	0.8705913038207793	0.4454398292140914	
559	9.47457627118644	0.29432155786484987	1.0551583035891816	0.5429415926047184	0.26462685090495136	0.5564881937974121	0.5301327261387303	0.27207505944117366	0.0800681563451638	0.540923711176	0.2155355022943793	0.06344841271040888	0.35324649426056237	0.2834182626506287	0.04455416311302075	0.3944269150585985	0.25860558303004777	-0.010323477653297086	0.6345195902906623	0.06615532212092683	1.0356202175459535	0.5861656877490069	0.0864820533749146	0.5438368980119961	0.570674703241398	0.06658083748438401	0.1062802159282803	0.5686644526084941	0.06063110776231785	0.06974616345156845	0.3681076020598828	0.013628412178534288	0.04296502085552817	0.42608386244532326	0.0820896115482658	0.0545923080953226	0.5959209965543408	0.20295483415965043	1.5870950761452536	0.5712960557732475	0.19100617256993208	1.8445002066470466	0.5133789380898515	0.18870141705189347	1.7105055265600697	0.47019069599148694	0.3501174414146833	1.5053730500074574	0.5559229149672726	0.40674723961057413	1.220781226925226	0.5446409064202496	0.3572185999748937	1.0558853415458698	0.37877116221820256	0.2657110483023395	1.0132952282726695	0.24049491534453277	0.277763365279643	0.9964303258493135	0.2417911244802075	0.31644478074652677	0.9613772391424967	0.29830578078845915	0.03272107398032482	1.5153286385803975	0.5836574638623526	-0.03321518978429727	1.2174969695449447	0.6147315896293416	-0.018619124737376827	0.9746237894163308	0.4930787248130854	0.03419474079564633	0.8873628967000401	0.44203667864589996	-0.006874833651527648	0.8834537393360804	0.41854043013470565	-0.042970290793430226	0.8639390997529486	0.45933057045758047	
560	9.491525423728811	0.29346062086234653	1.0575330710923412	0.5409712324172424	0.2649646153434805	0.5557423112669061	0.5299893405504883	0.271785677139053	0.07967899955183276	0.5415195713044348	0.21549304206736075	0.06508443633419025	0.352384477956939	0.2817155169615611	0.04423364836756494	0.39535550665983143	0.25905372956517736	-0.01034921696154502	0.634796552241868	0.0662041214671371	1.0372350849017293	0.5862999835950988	0.08653069400133027	0.5449079199401958	0.5704742419276584	0.06643854150580468	0.10604672790305653	0.5684493981981373	0.06071363480362961	0.06970156594848076	0.36796733945680243	0.013547311615525477	0.04284254333278278	0.42628198179442806	0.08130768775318674	0.05374913904971952	0.5966994851939325	0.20350316121330217	1.5875495889773066	0.5715514996463298	0.19162812309636268	1.8443664629864929	0.5153255061481957	0.1898919924285055	1.710483777475858	0.46985704155108476	0.3500357698286364	1.505776240723387	0.5563503781484169	0.4069587901163131	1.2193684184394287	0.5443685698481514	0.35907492958304443	1.0497944469911076	0.38104979363848435	0.2705161849408144	1.000650409610653	0.24960906773361885	0.2850954233301201	0.9827908582414084	0.2519254407358289	0.31724427089509943	0.950412325910592	0.3034805170123934	0.03269202627772179	1.5166208596827926	0.5837183044602716	-0.032889054489935926	1.218031285880787	0.6150628854283882	-0.02108626507634887	0.968196535937826	0.5046053261855549	0.028968157567027024	0.8796337581570629	0.4580753317714928	-0.00897565647697736	0.8763999554532019	0.4333011413640553	-0.04920863414705509	0.857812662884944	0.47296643023151375	
561	9.508474576271189	0.29289148381774205	1.0594360353668426	0.5387842243927071	0.26537338912248526	0.5549569730554811	0.5298095399061534	0.2713878292186127	0.07903443080659107	0.5425033950375667	0.21519132214842784	0.06736199638344795	0.3508771567827861	0.27991658561853394	0.04366949551041484	0.39609416842227574	0.259502132696456	-0.010443071481410729	0.6351885896455777	0.06637949642096197	1.0388267846808317	0.5863467165716224	0.08659938787167326	0.5462936985948795	0.5700751652641696	0.06625517643417789	0.10585086171364977	0.568207490453341	0.06079115895662955	0.0695805005823756	0.36767458359149935	0.01310704549061164	0.0420147627362816	0.42741849605614257	0.08046928791039906	0.052475209370305365	0.5978171708195068	0.2042297752164394	1.5879923111490981	0.5721242104965465	0.19217436498684948	1.8442457265440062	0.5171298194154528	0.19111635136915162	1.7103762419763668	0.46955498693135844	0.34997799590559237	1.5058652216015844	0.5566537378813288	0.40725826916812835	1.2183934274258497	0.543419439478849	0.3612067979215654	1.0440261417552728	0.38345120023876256	0.27594460137939175	0.9874350458562945	0.2631904250664746	0.2927980486713716	0.96830299895245	0.2643544490387945	0.3175210638373015	0.9370272179743266	0.30954051314051434	0.03267719432186005	1.5176036420662264	0.5838041035587173	-0.032817503814704996	1.218765225804121	0.6152196816098986	-0.02477449325014324	0.962533404321583	0.5174114364360572	0.023595879155540754	0.8737446195265964	0.47037678147041917	-0.011278670101354697	0.8710151511426114	0.44403935842686587	-0.05558391926579545	0.8530467383956878	0.4847594714901257	
562	9.52542372881356	0.2925261471025839	1.0607541876529651	0.5366664751138523	0.26571137831045627	0.5541850469477517	0.5295544120967849	0.27093719260149873	0.07815061394256717	0.5438975357994421	0.21457717683124022	0.06988204448156853	0.3488227695514289	0.2783519900963489	0.04291623557961105	0.39673207553448353	0.2598891886802195	-0.010796339518456646	0.6359284732650596	0.06666813897049491	1.0403599948506232	0.5863121344710284	0.08652245505047429	0.5479906406588569	0.5695914140914504	0.06602945089515626	0.10570186578992907	0.5679421432627069	0.06084877395953782	0.0693709148424593	0.3672072814055826	0.012305158941708765	0.04045443724071713	0.42954477210641484	0.07962472745769322	0.050989142122532055	0.5991330226903429	0.20498176922773795	1.5882131396801509	0.5729131381910559	0.1925876039269201	1.8441518880954135	0.5185787268275331	0.19217151635918162	1.7101131081084686	0.4695231027497608	0.3500509062410846	1.5056666928575135	0.5563618930774394	0.4077364804453596	1.2180306802129375	0.5413490825910254	0.3637438608625663	1.0383290212178673	0.3860334739278064	0.2817024808412235	0.9728781757188638	0.2809848437922106	0.3001728048932099	0.9527343107799775	0.27790132415897356	0.31809840265621236	0.9211144188167165	0.3177682826358916	0.03267613252799365	1.518162949015417	0.5838785013736546	-0.032768220999420755	1.2197649311202219	0.6154117708154917	-0.0292318321834008	0.9575322795376043	0.5318234725006697	0.018876618387309994	0.8695197946632999	0.4790478898272051	-0.013999458386249816	0.8663849747773709	0.4528363084111148	-0.061241745489279936	0.8499039677271949	0.4939160257469945	
